<?xml version="1.0" encoding="utf-8"?>
<!-- Generator: Adobe Illustrator 16.0.0, SVG Export Plug-In . SVG Version: 6.00 Build 0)  -->
<!DOCTYPE svg PUBLIC "-//W3C//DTD SVG 1.1//EN" "http://www.w3.org/Graphics/SVG/1.1/DTD/svg11.dtd">
<svg version="1.1" xmlns="http://www.w3.org/2000/svg" xmlns:xlink="http://www.w3.org/1999/xlink" x="0px" y="0px" width="256px"
	 height="256px" viewBox="0 0 256 256" enable-background="new 0 0 256 256" xml:space="preserve">
<g id="Artwork">
	<polyline fill="#6750E0" points="256,49.22 117.781,129.021 117.781,256 256,256 256,49.22 	"/>
	<polyline fill="#4779E9" points="256,0 0,0 0,61.02 117.781,129.021 256,49.22 256,0 	"/>
	<polyline fill="#6F62E3" points="117.781,129.021 117.781,129.021 0,197.022 0,256 117.781,256 117.781,129.021 	"/>
	<polyline fill="#6F55E1" points="0,61.02 0,197.022 117.781,129.021 0,61.02 	"/>
	<polygon fill="#FFFFFF" points="91.58,256 0,256 0,163.544 	"/>
	<g>
		<polyline fill="none" stroke="#FFFFFF" stroke-width="3" stroke-linejoin="bevel" stroke-miterlimit="10" points="59.808,113.174 
			73.022,126.389 101.772,97.64 		"/>
		
			<rect x="112.264" y="97.64" fill="none" stroke="#FFFFFF" stroke-width="3" stroke-linejoin="bevel" stroke-miterlimit="10" width="31.474" height="26.228"/>
		
			<rect x="159.474" y="97.64" fill="none" stroke="#FFFFFF" stroke-width="3" stroke-linejoin="bevel" stroke-miterlimit="10" width="31.474" height="26.228"/>
		
			<rect x="65.053" y="144.85" fill="none" stroke="#FFFFFF" stroke-width="3" stroke-linejoin="bevel" stroke-miterlimit="10" width="31.474" height="26.229"/>
		
			<rect x="112.264" y="144.85" fill="none" stroke="#FFFFFF" stroke-width="3" stroke-linejoin="bevel" stroke-miterlimit="10" width="31.474" height="26.229"/>
		
			<rect x="159.474" y="144.85" fill="none" stroke="#FFFFFF" stroke-width="3" stroke-linejoin="bevel" stroke-miterlimit="10" width="31.474" height="26.229"/>
		<polyline fill="none" stroke="#FFFFFF" stroke-width="3" stroke-linejoin="bevel" stroke-miterlimit="10" points="190.947,60.92 
			211.93,60.92 211.93,81.902 44.07,81.902 44.07,60.92 65.053,60.92 		"/>
		
			<line fill="none" stroke="#FFFFFF" stroke-width="3" stroke-linejoin="bevel" stroke-miterlimit="10" x1="86.035" y1="60.92" x2="169.965" y2="60.92"/>
		
			<rect x="44.07" y="81.902" fill="none" stroke="#FFFFFF" stroke-width="3" stroke-linejoin="bevel" stroke-miterlimit="10" width="167.859" height="104.912"/>
		
			<line fill="none" stroke="#FFFFFF" stroke-width="3" stroke-linejoin="bevel" stroke-miterlimit="10" x1="75.544" y1="71.411" x2="75.544" y2="45.184"/>
		
			<line fill="none" stroke="#FFFFFF" stroke-width="3" stroke-linejoin="bevel" stroke-miterlimit="10" x1="180.456" y1="71.411" x2="180.456" y2="45.184"/>
	</g>
	<path d="M40.677,238.014c0,0-2.529,1.629-3.781,1.629c-1.1,0-1.667-0.808-1.667-2.309c0-2.323,0-8.39,0-11.213
		c0-1.932-0.43-3.976-3.168-3.976c-1.57,0-3.559,1.42-6.009,2.829c-1.049,0.602-2.903,1.672-4.304,2.482c0-1.138,0-2.503,0-3.628
		c3.236-1.866,8.775-4.926,8.775-11.777c0-4.347-1.85-7.363-5.678-7.363c-1.436,0-3.729,0.992-4.915,2.643
		c-1.968,2.743-2.036,6.557-2.036,9.316c0,2.309,0,24.502,0,26.765c0,0.095,0.064,0.132,0.144,0.083
		c0.47-0.288,3.708-1.778,3.708-2.474v-12.069c1.037-0.609,2.933-1.721,4.507-2.621c0.555-0.317,1.857-0.957,2.936-0.957
		c1.81,0,2.188,1.333,2.188,2.739c0,2.382,0,9.191,0,11.575c0,1.745,0.95,2.822,2.518,2.822c1.725,0,5.547-2.215,7.383-3.408
		L40.677,238.014z M23.03,206.789c0.504-0.431,1.106-0.639,1.722-0.668c1.261-0.061,2.481,0.521,3.284,1.691
		c0.893,1.3,1.087,2.672,1.087,4.376c0,5.882-4.711,8.545-7.377,10.064c0-7.648,0-8.22,0-8.476
		C21.746,212.179,21.625,207.992,23.03,206.789z"/>
</g>
<g id="Grid">
</g>
<g id="Gabarito" display="none">
</g>
</svg>
